# xmcd
#
# Track frame offsets:
# 150
# 29207
# 55387
# 85285
# 103157
# 133670
# 156767
# 184122
# 206430
# 226847
# 245557
# 272167
#
# Disc length: 4034 seconds
#
#
# Revision: 0
# Processed by: cddbd v1.4PL0 Copyright (c) Steve Scherf et al.
# Submitted via: FreeRIP 2.00 
#
DISCID=ac0fc00c
DTITLE=George_Porter,_Jr._&_Runnin'_Pardners - Things_Ain't_What_They_Used_To_Be
DYEAR=1994
DGENRE=Funk
TTITLE0=Woogie_Boogie
TTITLE1=Clara
TTITLE2=Runnin'_Pardners
TTITLE3=Heart_Thief
TTITLE4=Sissy_Strut
TTITLE5=Pallet_On_The_Floor
TTITLE6=Funkify_Your_Life
TTITLE7=Concentrate_On_Work
TTITLE8=I_Wish
TTITLE9=Keithstoneous
TTITLE10=Count_On_You
TTITLE11=Happy_Song
EXTD=
EXTT0=
EXTT1=
EXTT2=
EXTT3=
EXTT4=
EXTT5=
EXTT6=
EXTT7=
EXTT8=
EXTT9=
EXTT10=
EXTT11=
PLAYORDER=
